<?xml version="1.0" encoding="iso-8859-1"?>
<!-- Generator: Adobe Illustrator 19.0.0, SVG Export Plug-In . SVG Version: 6.00 Build 0)  -->
<svg version="1.1" id="Capa_1" xmlns="http://www.w3.org/2000/svg" xmlns:xlink="http://www.w3.org/1999/xlink" x="0px" y="0px"
	 viewBox="0 0 489.1 489.1" style="enable-background:new 0 0 489.1 489.1;" xml:space="preserve">
<g>
	<g>
		<g>
			<path d="M160.9,282.4l-19.3,19.3c-55.7-55.7-55.7-146.4,0-202.2l19.3,19.3C115.8,163.8,115.8,237.3,160.9,282.4z M177.8,135.6
				c-35.8,35.8-35.8,94.1,0,130l19.3-19.3c-12.2-12.2-18.9-28.5-18.9-45.7c0-17.3,6.7-33.5,18.9-45.7L177.8,135.6z M328.3,282.4
				l19.3,19.3c55.7-55.7,55.7-146.4,0-202.2l-19.3,19.3C373.4,163.8,373.4,237.3,328.3,282.4z M311.4,265.5
				c35.8-35.8,35.8-94.1,0-130l-19.3,19.3c12.2,12.2,18.9,28.5,18.9,45.7s-6.7,33.5-18.9,45.7L311.4,265.5z M0,337.8V60.7
				c0-21.8,17.7-39.5,39.5-39.5h410.1c21.8,0,39.5,17.7,39.5,39.5v277.1c0,21.8-17.7,39.5-39.5,39.5H288.8v44.1h31.4
				c5.2,0,9.5,4.2,9.5,9.5v27.5c0,5.2-4.2,9.5-9.5,9.5H169c-5.2,0-9.5-4.2-9.5-9.5v-27.5c0-5.2,4.2-9.5,9.5-9.5h31.4v-44.1H39.5
				C17.7,377.3,0,359.6,0,337.8z M53.9,323h176.4v-83.2c-16.1-5.8-27.5-21.2-27.5-39.3c0-23.1,18.7-41.8,41.8-41.8
				s41.8,18.7,41.8,41.8c0,18.1-11.5,33.4-27.5,39.3V323h176.4V75H53.9V323z"/>
		</g>
	</g>
</g>
<g>
</g>
<g>
</g>
<g>
</g>
<g>
</g>
<g>
</g>
<g>
</g>
<g>
</g>
<g>
</g>
<g>
</g>
<g>
</g>
<g>
</g>
<g>
</g>
<g>
</g>
<g>
</g>
<g>
</g>
</svg>
