<?xml version="1.0" encoding="iso-8859-1"?>
<!-- Generator: Adobe Illustrator 19.0.0, SVG Export Plug-In . SVG Version: 6.00 Build 0)  -->
<svg version="1.1" id="Capa_1" xmlns="http://www.w3.org/2000/svg" xmlns:xlink="http://www.w3.org/1999/xlink" x="0px" y="0px"
	 viewBox="0 0 489.901 489.901" style="enable-background:new 0 0 489.901 489.901;" xml:space="preserve">
<g>
	<g>
		<path d="M98.8,144.1c-8.3,8.3-8.3,20.8,0,29.1s20.8,8.3,29.1,0c41.6-40.6,109.2-40.6,150.8,0c12.7,12.2,25,4.2,28.1,0
			c8.3-8.3,8.3-20.8,0-29.1C249.7,86.9,156.1,86.9,98.8,144.1z"/>
		<path d="M147.7,191.9c-8.3,8.3-8.3,20.8,0,29.1s20.8,8.3,29.1,0c14.6-14.6,40.1-15.1,54.1,0c11.1,12,25,4.2,28.1,0
			c8.3-8.3,8.3-20.8,0-29.1C228.9,161.8,178.9,161.8,147.7,191.9z"/>
		<path d="M469.2,94.2h-60.3V21.3c0-11.4-9.4-20.8-20.8-20.8H20.8C9.4,0.5,0,9.9,0,21.3v348.5c0,11.4,9.4,20.8,20.8,20.8h162.3v57.2
			h-46.8c-11.4,0-20.8,9.4-20.8,20.8s9.4,20.8,20.8,20.8h136.3c11.4,0,20.8-9.4,20.8-20.8s-9.4-20.8-20.8-20.8h-47.9v-57.2h97.8v78
			c0,11.4,9.4,20.8,20.8,20.8h124.8c11.4,0,20.8-9.4,21.8-20.8V115C490,103.5,480.6,94.2,469.2,94.2z M40.6,350.1v-309h326.7v309
			H40.6z M448.4,448.9h-84.3v-58.3H388c11.4,0,20.8-9.4,20.8-20.8v-234h39.5v313.1H448.4z"/>
		<circle cx="204.9" cy="267.9" r="21"/>
	</g>
</g>
<g>
</g>
<g>
</g>
<g>
</g>
<g>
</g>
<g>
</g>
<g>
</g>
<g>
</g>
<g>
</g>
<g>
</g>
<g>
</g>
<g>
</g>
<g>
</g>
<g>
</g>
<g>
</g>
<g>
</g>
</svg>
